<svg width="24" height="25" viewBox="0 0 24 25" fill="none" xmlns="http://www.w3.org/2000/svg">
<path d="M18 15.1071V18.5357H14.4V20.8214H18V24.25H20.4V20.8214H24V18.5357H20.4V15.1071H18ZM12.312 21.6671L10.8 23.1071L9 21.3929L7.2 23.1071L5.4 21.3929L3.6 23.1071L1.8 21.3929L0 23.1071V0.25L1.8 1.96429L3.6 0.25L5.4 1.96429L7.2 0.25L9 1.96429L10.8 0.25L12.6 1.96429L14.4 0.25L16.2 1.96429L18 0.25L19.8 1.96429L21.6 0.25V13.2214C20.844 12.97 20.04 12.8214 19.2 12.8214V3.67857H2.4V19.6786H12C12 20.33 12.12 21.0729 12.312 21.6671ZM13.848 15.1071C13.2 15.77 12.732 16.5357 12.42 17.3929H3.6V15.1071H13.848ZM3.6 10.5357H18V12.8214H3.6V10.5357ZM3.6 5.96429H18V8.25H3.6V5.96429Z" fill="#95999E"/>
</svg>
