<svg width="22" height="17" viewBox="0 0 22 17" fill="none" xmlns="http://www.w3.org/2000/svg">
<path d="M4 0.75H22V12.75H4V0.75ZM13 3.75C13.7956 3.75 14.5587 4.06607 15.1213 4.62868C15.6839 5.19129 16 5.95435 16 6.75C16 7.54565 15.6839 8.30871 15.1213 8.87132C14.5587 9.43393 13.7956 9.75 13 9.75C12.2044 9.75 11.4413 9.43393 10.8787 8.87132C10.3161 8.30871 10 7.54565 10 6.75C10 5.95435 10.3161 5.19129 10.8787 4.62868C11.4413 4.06607 12.2044 3.75 13 3.75ZM8 2.75C8 3.28043 7.78929 3.78914 7.41421 4.16421C7.03914 4.53929 6.53043 4.75 6 4.75V8.75C6.53043 8.75 7.03914 8.96071 7.41421 9.33579C7.78929 9.71086 8 10.2196 8 10.75H18C18 10.2196 18.2107 9.71086 18.5858 9.33579C18.9609 8.96071 19.4696 8.75 20 8.75V4.75C19.4696 4.75 18.9609 4.53929 18.5858 4.16421C18.2107 3.78914 18 3.28043 18 2.75H8ZM0 4.75H2V14.75H18V16.75H0V4.75Z" fill="#95999E"/>
</svg>
